<svg width="63" height="63" viewBox="0 0 64 64" fill="none" xmlns="http://www.w3.org/2000/svg">
<g id="apple" clip-path="url(#clip0_112359_85483)">
<path id="Vector" d="M54.6357 21.9161C54.2645 22.2041 47.7109 25.8969 47.7109 34.1081C47.7109 43.6057 56.0501 46.9657 56.2997 47.0489C56.2613 47.2537 54.9749 51.6505 51.9029 56.1305C49.1637 60.0729 46.3029 64.0089 41.9509 64.0089C37.5989 64.0089 36.4789 61.4809 31.4549 61.4809C26.5589 61.4809 24.8181 64.0921 20.8373 64.0921C16.8565 64.0921 14.0789 60.4441 10.8853 55.9641C7.18607 50.7033 4.19727 42.5305 4.19727 34.7737C4.19727 22.3321 12.2869 15.7337 20.2485 15.7337C24.4789 15.7337 28.0053 18.5113 30.6613 18.5113C33.1893 18.5113 37.1317 15.5673 41.9445 15.5673C43.7685 15.5673 50.3221 15.7337 54.6357 21.9161ZM39.6597 10.3001C41.6501 7.93851 43.0581 4.66171 43.0581 1.38491C43.0581 0.930511 43.0197 0.469711 42.9365 0.0985107C39.6981 0.220111 35.8453 2.25531 33.5221 4.94971C31.6981 7.02331 29.9957 10.3001 29.9957 13.6217C29.9957 14.1209 30.0789 14.6201 30.1173 14.7801C30.3221 14.8185 30.6549 14.8633 30.9877 14.8633C33.8933 14.8633 37.5477 12.9177 39.6597 10.3001Z" fill="#9CA3AF"/>
</g>
<defs>
<clipPath id="clip0_112359_85483">
<rect width="64" height="64" fill="white" transform="translate(0.197266 0.0985107)"/>
</clipPath>
</defs>
</svg>
