<svg width="64" height="64" viewBox="0 0 64 64" fill="none" xmlns="http://www.w3.org/2000/svg">
<g id="bootstrap-5">
<path id="Vector" fill-rule="evenodd" clip-rule="evenodd" d="M13.4903 6.10461C9.83852 6.10461 7.13639 9.30086 7.25739 12.7671C7.37352 16.0972 7.22264 20.4102 6.13689 23.9275C5.04727 27.4546 3.20577 29.6897 0.197266 29.9766V33.2156C3.20577 33.5031 5.04727 35.7371 6.13677 39.2647C7.22264 42.782 7.37339 47.095 7.25727 50.4251C7.13627 53.8909 9.83839 57.0876 13.4908 57.0876H50.9091C54.5609 57.0876 57.2625 53.8914 57.1415 50.4251C57.0254 47.095 57.1763 42.782 58.262 39.2647C59.3516 35.7371 61.1886 33.5022 64.1973 33.2156V29.9766C61.1888 29.6891 59.3518 27.4551 58.262 23.9275C57.1761 20.4107 57.0254 16.0972 57.1415 12.7671C57.2625 9.30136 54.5609 6.10461 50.9091 6.10461H13.4898H13.4903ZM43.5871 37.488C43.5871 42.2609 40.027 45.1555 34.1189 45.1555H24.0616C23.7739 45.1555 23.498 45.0412 23.2946 44.8378C23.0912 44.6343 22.9769 44.3584 22.9769 44.0707V19.1216C22.9769 18.8339 23.0912 18.558 23.2946 18.3546C23.498 18.1512 23.7739 18.0369 24.0616 18.0369H34.0616C38.988 18.0369 42.2211 20.7054 42.2211 24.8024C42.2211 27.678 40.0461 30.2524 37.2753 30.7034V30.8534C41.0473 31.2671 43.5871 33.8796 43.5871 37.488ZM33.0223 21.4755H27.2878V29.5755H32.1176C35.8514 29.5755 37.9101 28.072 37.9101 25.3846C37.9098 22.8661 36.1398 21.4755 33.0223 21.4755ZM27.2878 32.7894V41.7157H33.2333C37.1208 41.7157 39.1799 40.1559 39.1799 37.2244C39.1799 34.2929 37.063 32.7889 32.9833 32.7889H27.2878V32.7894Z" fill="#9CA3AF"/>
</g>
</svg>
