<svg width="63" height="63" viewBox="0 0 63 63" fill="none" xmlns="http://www.w3.org/2000/svg">
<g id="github">
<path id="Vector" d="M32.1974 0.0985107C14.5265 0.0985107 0.197266 14.7878 0.197266 32.9086C0.197266 47.4052 9.36626 59.7037 22.081 64.0422C23.6802 64.3458 24.2674 63.3304 24.2674 62.4637C24.2674 61.6815 24.2376 59.0967 24.224 56.3551C15.3213 58.3399 13.4428 52.484 13.4428 52.484C11.9872 48.6915 9.88979 47.6833 9.88979 47.6833C6.98655 45.6469 10.1086 45.6885 10.1086 45.6885C13.3221 45.9201 15.0141 49.0698 15.0141 49.0698C17.8682 54.0858 22.5001 52.6355 24.3262 51.7974C24.6133 49.6766 25.4427 48.2294 26.3578 47.41C19.2503 46.5802 11.7783 43.7669 11.7783 31.195C11.7783 27.6131 13.0284 24.686 15.0756 22.3884C14.7433 21.5619 13.6481 18.2249 15.3856 13.7055C15.3856 13.7055 18.0727 12.8237 24.1879 17.0688C26.7403 16.3416 29.4779 15.9772 32.1974 15.9648C34.9169 15.9772 37.6565 16.3416 40.2139 17.0688C46.3218 12.8237 49.0052 13.7055 49.0052 13.7055C50.747 18.2249 49.6512 21.5619 49.3189 22.3884C51.3706 24.686 52.6122 27.6128 52.6122 31.195C52.6122 43.7967 45.1262 46.5717 38.0006 47.3838C39.1483 48.402 40.171 50.3989 40.171 53.4597C40.171 57.8497 40.1339 61.383 40.1339 62.4637C40.1339 63.3368 40.7098 64.36 42.3321 64.0378C55.0398 59.6944 64.1973 47.4003 64.1973 32.9086C64.1973 14.7878 49.8701 0.0985107 32.1974 0.0985107Z" fill="#9CA3AF"/>
<path id="Vector_2" d="M12.1823 46.837C12.112 46.9999 11.8615 47.0488 11.6339 46.9371C11.4018 46.8301 11.2712 46.6077 11.3465 46.4441C11.4156 46.2763 11.666 46.2295 11.8977 46.3422C12.1303 46.449 12.2628 46.6734 12.1823 46.837ZM13.7564 48.277C13.6038 48.4221 13.3054 48.3547 13.1028 48.1254C12.8935 47.8967 12.8544 47.591 13.0092 47.4435C13.1666 47.2986 13.456 47.3663 13.6658 47.5953C13.8751 47.8267 13.9157 48.1306 13.7561 48.2773M14.8363 50.1194C14.64 50.2592 14.3193 50.1282 14.1213 49.8364C13.9253 49.5448 13.9253 49.1949 14.1255 49.0546C14.3243 48.9144 14.64 49.0405 14.8408 49.33C15.0366 49.6267 15.0366 49.9766 14.836 50.1197M16.6624 52.2534C16.4869 52.4516 16.1135 52.3985 15.8399 52.1278C15.5604 51.8633 15.4823 51.4879 15.6582 51.2895C15.8357 51.0908 16.2114 51.1467 16.4869 51.4151C16.7648 51.6791 16.8493 52.0573 16.6624 52.2534ZM19.0225 52.9739C18.9455 53.2307 18.5856 53.3476 18.2232 53.2385C17.8613 53.126 17.6243 52.8249 17.6974 52.5653C17.7727 52.3067 18.1341 52.185 18.4992 52.3018C18.8606 52.4137 19.0978 52.7125 19.0225 52.9739ZM21.7089 53.2794C21.7179 53.5501 21.4105 53.7745 21.03 53.7793C20.6473 53.7878 20.3378 53.5689 20.3338 53.3028C20.3338 53.0295 20.6342 52.8072 21.0167 52.8007C21.3972 52.793 21.7089 53.0105 21.7089 53.2794ZM24.3476 53.1757C24.3933 53.4397 24.1288 53.7109 23.7511 53.7829C23.3796 53.8524 23.0358 53.6895 22.9884 53.4278C22.9422 53.1571 23.2117 52.8862 23.5824 52.8159C23.9609 52.7485 24.2994 52.9073 24.3476 53.1757Z" fill="#9CA3AF"/>
</g>
</svg>
