<svg width="91" height="45" viewBox="0 0 397 182" fill="none" xmlns="http://www.w3.org/2000/svg">
<g clip-path="url(#clip0_112364_6444)">
<path d="M85.24 118.78H46.16V85.22H85.22L125.88 44.56V0H79.72V39.06H40.66L0 79.72V124.27L40.67 164.93H125.91V159.43L85.24 118.76V118.78ZM85.22 5.5H120.39V42.28L85.22 77.44V5.5ZM42.94 44.55H79.72V79.72H7.78L42.94 44.55ZM40.67 157.16L5.49 122V85.22H40.66V157.16H40.67ZM46.19 159.45V124.28H82.97L118.13 159.45H46.19Z" fill="url(#paint0_linear_112364_6444)"/>
<path d="M172.71 85.38C183.63 85.38 192.34 78.53 194.77 68.2H185.6C183.19 73.58 178.5 76.7 172.72 76.7C164.84 76.7 158.79 70.36 158.79 62.16C158.79 53.96 164.75 47.67 172.72 47.67C178.49 47.67 183.34 50.75 185.66 55.83H194.67C192.21 45.68 183.67 38.99 172.74 38.99C159.52 38.99 149.53 48.93 149.53 62.14C149.53 75.35 159.54 85.38 172.71 85.38Z" fill="#22163D"/>
<path d="M231.72 74.17C229.43 75.88 226.51 76.85 223.19 76.85C215.95 76.85 210.79 72.44 209.65 65.28H245.55C245.65 64.28 245.74 63.29 245.74 62.3C245.74 49.43 236.73 39 223.19 39C209.65 39 200.47 48.96 200.47 62.19C200.47 75.42 210.26 85.38 223.19 85.38C228.81 85.38 233.85 83.54 237.8 80.23L231.72 74.18V74.17ZM223.2 47.2C229.94 47.2 235 51.17 236.63 57.89H209.88C211.37 51.33 216.35 47.2 223.19 47.2H223.2Z" fill="#22163D"/>
<path d="M271.5 57.62C266.17 56.74 261.65 55.97 261.65 52.07C261.65 48.84 264.76 46.71 269.79 46.71C275.13 46.71 278.34 48.97 278.51 53.17H287.12C286.95 44.59 280.29 39 270 39C259.71 39 252.85 44.43 252.85 52.37C252.85 62.62 261.53 64.3 268.91 65.56C274.32 66.47 279.07 67.43 279.07 71.63C279.07 75.32 275.32 77.39 270.43 77.39C265.1 77.39 261.17 74.95 260.94 70.27H252.06C252.29 79.44 259.36 85.39 270.12 85.39C280.88 85.39 288.06 79.82 288.06 71.23C288.06 60.33 278.98 58.89 271.5 57.63V57.62Z" fill="#22163D"/>
<path d="M317.6 85.38C324.05 85.38 329.63 82.95 333.64 78.9L334.53 84.28H341.86V40.05H334.84L333.78 45.58C329.76 41.46 324.12 38.99 317.6 38.99C304.43 38.99 294.57 48.87 294.57 62.16C294.57 75.45 304.42 85.38 317.6 85.38ZM318.32 47.65C326.65 47.65 332.75 53.82 332.75 62.16C332.75 70.5 326.66 76.67 318.32 76.67C309.98 76.67 303.83 70.44 303.83 62.16C303.83 53.88 309.98 47.65 318.32 47.65Z" fill="#22163D"/>
<path d="M374.3 76.85C367.06 76.85 361.9 72.44 360.76 65.28H396.66C396.77 64.28 396.85 63.29 396.85 62.3C396.85 49.43 387.84 39 374.3 39C360.76 39 351.58 48.96 351.58 62.19C351.58 75.42 361.37 85.38 374.3 85.38C379.88 85.38 384.88 83.57 388.81 80.32L382.72 74.25C380.44 75.92 377.56 76.85 374.3 76.85ZM374.3 47.2C381.04 47.2 386.1 51.17 387.73 57.89H360.99C362.48 51.33 367.46 47.2 374.3 47.2Z" fill="#22163D"/>
<path d="M192.97 131.47C189.34 124.21 182.05 119.47 172.96 119.47C160.04 119.47 150.42 129.36 150.42 142.45C150.42 155.54 160.04 165.43 172.96 165.43C182.1 165.43 189.42 160.62 193.03 153.29L193.4 164.57H195.59V104.71H192.97V131.48V131.47ZM173.11 162.86C161.68 162.86 153.09 154.05 153.09 142.44C153.09 130.83 161.69 122.02 173.11 122.02C184.53 122.02 193.1 130.66 193.1 142.44C193.1 154.22 184.66 162.86 173.11 162.86Z" fill="#22163D"/>
<path d="M214.91 105.93H211.06V110.5H214.91V105.93Z" fill="#22163D"/>
<path d="M214.3 120.32H211.68V164.55H214.3V120.32Z" fill="#22163D"/>
<path d="M267.36 131.43C263.95 124.22 256.78 119.46 248.1 119.46C235.94 119.46 226.56 128.92 226.56 141.23C226.56 153.54 235.88 162.98 248.1 162.98C256.64 162.98 263.67 158.5 267.15 151.55V158.29C267.15 171.03 260.15 178.58 248.8 178.58C240.67 178.58 234.45 174.63 231.82 167.52H229.2C231.94 176.04 238.93 181.03 248.8 181.03C261.82 181.03 269.73 172.35 269.73 158.03V120.31H267.74L267.36 131.42V131.43ZM248.31 160.44C237.44 160.44 229.23 152.17 229.23 141.23C229.23 130.29 237.44 122 248.31 122C259.18 122 267.13 130.19 267.13 141.23C267.13 152.27 259.18 160.44 248.31 160.44Z" fill="#22163D"/>
<path d="M289.03 105.93H285.18V110.5H289.03V105.93Z" fill="#22163D"/>
<path d="M288.41 120.32H285.79V164.55H288.41V120.32Z" fill="#22163D"/>
<path d="M310.22 151.02V122.72H326.27V120.4H310.22V107.32H307.6V120.4H297.4V122.72H307.6V151.12C307.6 159.5 312.62 164.57 320.85 164.57H326.65V162.07H321.08C314.18 162.07 310.23 157.99 310.23 151.01L310.22 151.02Z" fill="#22163D"/>
<path d="M374.01 131.88C370.47 124.39 363.09 119.46 353.81 119.46C340.95 119.46 331.25 129.35 331.25 142.44C331.25 155.53 340.96 165.42 353.81 165.42C363.08 165.42 370.45 160.49 374 153.01L374.29 164.56H376.58V120.33H374.35L374.01 131.89V131.88ZM353.96 162.86C342.54 162.86 333.91 154.1 333.91 142.45C333.91 130.8 342.53 122.03 353.96 122.03C365.39 122.03 373.93 130.65 373.93 142.45C373.93 154.25 365.51 162.86 353.96 162.86Z" fill="#22163D"/>
<path d="M395.29 104.7H392.67V164.56H395.29V104.7Z" fill="#22163D"/>
</g>
<defs>
<linearGradient id="paint0_linear_112364_6444" x1="64.87" y1="2.92" x2="62.2" y2="169.67" gradientUnits="userSpaceOnUse">
<stop stop-color="#382063"/>
<stop offset="0.12" stop-color="#3A1F63"/>
<stop offset="0.19" stop-color="#431D64"/>
<stop offset="0.26" stop-color="#521B66"/>
<stop offset="0.32" stop-color="#67176A"/>
<stop offset="0.37" stop-color="#82126E"/>
<stop offset="0.42" stop-color="#A30C73"/>
<stop offset="0.46" stop-color="#CA0479"/>
<stop offset="0.49" stop-color="#E5007D"/>
<stop offset="1" stop-color="#009EE3"/>
</linearGradient>
<clipPath id="clip0_112364_6444">
<rect width="396.85" height="181.04" fill="white"/>
</clipPath>
</defs>
</svg>
