<svg width="104" height="48" viewBox="0 0 104 48" fill="none" xmlns="http://www.w3.org/2000/svg">
<g id="logo-wrapper">
<g id="Camada 1">
<path id="Vector" d="M22.6361 31.373H12.432V22.6103H22.6309L33.2475 11.9936V0.358643H21.1948V10.5575H10.9959L0.379272 21.1742V32.8065L10.9985 43.4232H33.2554V41.9871L22.6361 31.3678V31.373ZM22.6309 1.79474H31.8141V11.3983L22.6309 20.5788V1.79474ZM11.5912 11.991H21.1948V21.1742H2.41069L11.5912 11.991ZM10.9985 41.3944L1.81276 32.2138V22.6103H10.9959V41.3944H10.9985ZM12.4398 41.9923V32.8091H22.0434L31.224 41.9923H12.4398Z" fill="white"/>
<path id="Vector_2" d="M45.4752 22.6521C48.3265 22.6521 50.6008 20.8635 51.2353 18.1663H48.8409C48.2116 19.571 46.987 20.3857 45.4778 20.3857C43.4203 20.3857 41.8406 18.7303 41.8406 16.5892C41.8406 14.4481 43.3968 12.8057 45.4778 12.8057C46.9844 12.8057 48.2508 13.6099 48.8566 14.9364H51.2091C50.5668 12.2861 48.337 10.5393 45.483 10.5393C42.0312 10.5393 39.4227 13.1347 39.4227 16.584C39.4227 20.0332 42.0364 22.6521 45.4752 22.6521Z" fill="white"/>
<path id="Vector_3" d="M60.8833 19.725C60.2853 20.1715 59.5229 20.4248 58.656 20.4248C56.7656 20.4248 55.4183 19.2733 55.1206 17.4038H64.4944C64.5205 17.1427 64.544 16.8842 64.544 16.6257C64.544 13.2652 62.1914 10.5419 58.656 10.5419C55.1206 10.5419 52.7236 13.1425 52.7236 16.597C52.7236 20.0514 55.2799 22.6521 58.656 22.6521C60.1234 22.6521 61.4394 22.1716 62.4708 21.3074L60.8833 19.7276V19.725ZM58.6586 12.683C60.4185 12.683 61.7397 13.7196 62.1653 15.4742H55.1807C55.5697 13.7613 56.87 12.683 58.656 12.683H58.6586Z" fill="white"/>
<path id="Vector_4" d="M71.2702 15.4037C69.8784 15.1739 68.6982 14.9729 68.6982 13.9546C68.6982 13.1112 69.5103 12.555 70.8237 12.555C72.218 12.555 73.0561 13.1451 73.1005 14.2418H75.3487C75.3043 12.0015 73.5653 10.5419 70.8785 10.5419C68.1917 10.5419 66.4005 11.9597 66.4005 14.0329C66.4005 16.7092 68.6669 17.1479 70.5939 17.4769C72.0065 17.7145 73.2467 17.9652 73.2467 19.0618C73.2467 20.0253 72.2676 20.5658 70.9908 20.5658C69.5991 20.5658 68.5729 19.9287 68.5129 18.7067H66.1942C66.2543 21.1011 68.1003 22.6547 70.9098 22.6547C73.7193 22.6547 75.5941 21.2003 75.5941 18.9574C75.5941 16.1113 73.2232 15.7353 71.2702 15.4063V15.4037Z" fill="white"/>
<path id="Vector_5" d="M83.3071 22.6521C84.9913 22.6521 86.4483 22.0176 87.4953 20.9601L87.7277 22.3649H89.6416V10.8161H87.8086L87.5319 12.26C86.4822 11.1842 85.0096 10.5393 83.3071 10.5393C79.8683 10.5393 77.2938 13.1191 77.2938 16.5892C77.2938 20.0593 79.8657 22.6521 83.3071 22.6521ZM83.4951 12.8005C85.6702 12.8005 87.2629 14.4115 87.2629 16.5892C87.2629 18.7668 85.6728 20.3779 83.4951 20.3779C81.3175 20.3779 79.7117 18.7512 79.7117 16.5892C79.7117 14.4272 81.3175 12.8005 83.4951 12.8005Z" fill="white"/>
<path id="Vector_6" d="M98.1121 20.4248C96.2216 20.4248 94.8743 19.2733 94.5767 17.4038H103.95C103.979 17.1427 104 16.8842 104 16.6257C104 13.2652 101.647 10.5419 98.1121 10.5419C94.5767 10.5419 92.1797 13.1425 92.1797 16.597C92.1797 20.0514 94.7359 22.6521 98.1121 22.6521C99.569 22.6521 100.875 22.1795 101.901 21.3309L100.311 19.7459C99.7153 20.182 98.9633 20.4248 98.1121 20.4248ZM98.1121 12.683C99.8719 12.683 101.193 13.7196 101.619 15.4742H94.6367C95.0258 13.7613 96.3261 12.683 98.1121 12.683Z" fill="white"/>
<path id="Vector_7" d="M50.7653 34.6865C49.8175 32.7908 47.914 31.5532 45.5405 31.5532C42.167 31.5532 39.6552 34.1355 39.6552 37.5534C39.6552 40.9713 42.167 43.5537 45.5405 43.5537C47.9271 43.5537 49.8384 42.2978 50.781 40.3838L50.8776 43.3291H51.4494V27.6992H50.7653V34.6891V34.6865ZM45.5797 42.8826C42.5952 42.8826 40.3523 40.5823 40.3523 37.5508C40.3523 34.5194 42.5978 32.219 45.5797 32.219C48.5615 32.219 50.7992 34.475 50.7992 37.5508C50.7992 40.6267 48.5955 42.8826 45.5797 42.8826Z" fill="white"/>
<path id="Vector_8" d="M56.494 28.0178H55.4888V29.2111H56.494V28.0178Z" fill="white"/>
<path id="Vector_9" d="M56.3347 31.7751H55.6506V43.324H56.3347V31.7751Z" fill="white"/>
<path id="Vector_10" d="M70.1891 34.6761C69.2987 32.7935 67.4266 31.5507 65.1602 31.5507C61.9851 31.5507 59.5359 34.0207 59.5359 37.235C59.5359 40.4492 61.9694 42.9141 65.1602 42.9141C67.39 42.9141 69.2256 41.7443 70.1343 39.9296V41.6895C70.1343 45.016 68.3065 46.9874 65.3429 46.9874C63.2201 46.9874 61.596 45.956 60.9093 44.0995H60.2252C60.9406 46.3242 62.7658 47.6271 65.3429 47.6271C68.7426 47.6271 70.8079 45.3607 70.8079 41.6216V31.7726H70.2883L70.1891 34.6735V34.6761ZM65.215 42.2509C62.3767 42.2509 60.233 40.0915 60.233 37.235C60.233 34.3785 62.3767 32.2139 65.215 32.2139C68.0532 32.2139 70.129 34.3523 70.129 37.235C70.129 40.1176 68.0532 42.2509 65.215 42.2509Z" fill="white"/>
<path id="Vector_11" d="M75.8473 28.0178H74.842V29.2111H75.8473V28.0178Z" fill="white"/>
<path id="Vector_12" d="M75.6854 31.7751H75.0013V43.324H75.6854V31.7751Z" fill="white"/>
<path id="Vector_13" d="M81.3802 39.7912V32.4018H85.571V31.796H81.3802V28.3807H80.6961V31.796H78.0328V32.4018H80.6961V39.8173C80.6961 42.0054 82.0069 43.3292 84.1558 43.3292H85.6702V42.6764H84.2159C82.4142 42.6764 81.3829 41.6111 81.3829 39.7885L81.3802 39.7912Z" fill="white"/>
<path id="Vector_14" d="M98.0363 34.7936C97.112 32.8379 95.185 31.5507 92.7619 31.5507C89.4041 31.5507 86.8713 34.133 86.8713 37.5509C86.8713 40.9688 89.4067 43.5512 92.7619 43.5512C95.1824 43.5512 97.1068 42.2639 98.0337 40.3108L98.1094 43.3266H98.7074V31.7778H98.1251L98.0363 34.7962V34.7936ZM92.8011 42.8827C89.8192 42.8827 87.5659 40.5954 87.5659 37.5535C87.5659 34.5116 89.8166 32.2217 92.8011 32.2217C95.7856 32.2217 98.0154 34.4725 98.0154 37.5535C98.0154 40.6346 95.8169 42.8827 92.8011 42.8827Z" fill="white"/>
<path id="Vector_15" d="M103.593 27.6967H102.909V43.3266H103.593V27.6967Z" fill="white"/>
</g>
</g>
</svg>
