<svg width="65" height="65" viewBox="0 0 65 65" fill="none" xmlns="http://www.w3.org/2000/svg">
<g id="react">
<path id="Vector" d="M60.0518 31.9268C60.0518 28.2266 55.4181 24.7201 48.314 22.5455C49.9533 15.3048 49.2248 9.54397 46.0142 7.69961C45.2741 7.26698 44.4089 7.06205 43.4639 7.06205V9.6009C43.9877 9.6009 44.4089 9.70335 44.7619 9.8969C46.3102 10.7849 46.9818 14.1663 46.4582 18.5153C46.333 19.5855 46.128 20.7126 45.8776 21.8625C43.646 21.316 41.2097 20.8948 38.6481 20.6216C37.1112 18.5153 35.5172 16.6026 33.912 14.9291C37.6234 11.4794 41.1072 9.5895 43.4753 9.5895V7.05066C40.3445 7.05066 36.2459 9.28212 32.1017 13.153C27.9577 9.30488 23.8591 7.0962 20.7282 7.0962V9.63505C23.0849 9.63505 26.58 11.5136 30.2916 14.9405C28.6976 16.614 27.1038 18.5153 25.5896 20.6216C23.0166 20.8948 20.5802 21.316 18.3487 21.8739C18.0869 20.7354 17.8934 19.6311 17.7568 18.5722C17.2216 14.2232 17.882 10.8419 19.4189 9.94244C19.7604 9.73751 20.2045 9.64643 20.7282 9.64643V7.10758C19.7718 7.10758 18.9066 7.31251 18.1552 7.74514C14.956 9.5895 14.2388 15.3389 15.8896 22.5569C8.80816 24.7428 4.19727 28.238 4.19727 31.9268C4.19727 35.6269 8.83094 39.1334 15.9351 41.308C14.2957 48.5488 15.0244 54.3095 18.2349 56.1539C18.975 56.5865 19.8401 56.7915 20.7965 56.7915C23.9274 56.7915 28.026 54.5601 32.17 50.6891C36.3142 54.5373 40.4128 56.746 43.5437 56.746C44.4999 56.746 45.3652 56.541 46.1167 56.1084C49.3158 54.264 50.033 48.5146 48.3823 41.2966C55.4409 39.1221 60.0518 35.6155 60.0518 31.9268ZM45.2286 24.333C44.8074 25.8016 44.2836 27.3159 43.6917 28.8301C43.2248 27.9193 42.7353 27.0084 42.2002 26.0976C41.6765 25.1869 41.1186 24.2989 40.5608 23.4336C42.1774 23.6727 43.7372 23.9687 45.2286 24.333ZM40.0143 36.458C39.1263 37.9949 38.2155 39.4522 37.2705 40.807C35.5741 40.9551 33.8551 41.0348 32.1245 41.0348C30.4054 41.0348 28.6863 40.9551 27.0013 40.8185C26.0564 39.4636 25.1342 38.0177 24.2461 36.4922C23.3809 35.0007 22.5953 33.4865 21.8781 31.961C22.584 30.4353 23.3809 28.9098 24.2347 27.4184C25.1228 25.8813 26.0336 24.4241 26.9786 23.0693C28.6749 22.9213 30.394 22.8416 32.1245 22.8416C33.8437 22.8416 35.5627 22.9213 37.2478 23.0579C38.1927 24.4127 39.1148 25.8586 40.0029 27.3842C40.8682 28.8756 41.6538 30.3898 42.3709 31.9154C41.6538 33.441 40.8682 34.9665 40.0143 36.458ZM43.6917 34.9779C44.3064 36.5036 44.8302 38.0291 45.2628 39.5091C43.7714 39.8735 42.2002 40.1809 40.5722 40.4199C41.13 39.5433 41.6879 38.6439 42.2116 37.7217C42.7353 36.8109 43.2248 35.8887 43.6917 34.9779ZM32.1473 47.1257C31.0886 46.0327 30.0298 44.8145 28.9823 43.4825C30.007 43.528 31.0543 43.5622 32.1131 43.5622C33.1833 43.5622 34.2421 43.5394 35.2782 43.4825C34.2535 44.8145 33.1947 46.0327 32.1473 47.1257ZM23.6769 40.4199C22.0602 40.1809 20.5005 39.8849 19.0091 39.5205C19.4303 38.0519 19.9541 36.5377 20.546 35.0234C21.0129 35.9343 21.5024 36.8451 22.0374 37.7559C22.5726 38.6667 23.119 39.5546 23.6769 40.4199ZM32.0904 16.7279C33.1492 17.8208 34.208 19.039 35.2554 20.371C34.2307 20.3255 33.1833 20.2913 32.1245 20.2913C31.0543 20.2913 29.9955 20.3141 28.9596 20.371C29.9841 19.039 31.0429 17.8208 32.0904 16.7279ZM23.6655 23.4336C23.1076 24.3103 22.5498 25.2097 22.026 26.1319C21.5024 27.0426 21.0129 27.9534 20.546 28.8642C19.9313 27.3387 19.4075 25.813 18.975 24.333C20.4663 23.9801 22.0374 23.6727 23.6655 23.4336ZM13.3621 37.6876C9.33188 35.9684 6.72472 33.7142 6.72472 31.9268C6.72472 30.1393 9.33188 27.8737 13.3621 26.1659C14.3413 25.7447 15.4114 25.3691 16.5158 25.0162C17.1647 27.2475 18.0186 29.57 19.0774 31.9496C18.03 34.3176 17.1875 36.6288 16.55 38.8488C15.4228 38.4958 14.3526 38.1088 13.3621 37.6876ZM19.4872 53.9566C17.9389 53.0686 17.2672 49.6873 17.7909 45.3383C17.9161 44.2681 18.1211 43.141 18.3715 41.9911C20.603 42.5375 23.0393 42.9587 25.601 43.2321C27.1379 45.3382 28.7318 47.2509 30.3371 48.9245C26.6257 52.3742 23.1418 54.264 20.7737 54.264C20.2614 54.2526 19.8287 54.1502 19.4872 53.9566ZM46.4923 45.2813C47.0275 49.6303 46.3671 53.0117 44.8302 53.9111C44.4886 54.116 44.0446 54.2071 43.5208 54.2071C41.1641 54.2071 37.669 52.3286 33.9575 48.9018C35.5514 47.2281 37.1453 45.3268 38.6595 43.2207C41.2326 42.9474 43.6689 42.5262 45.9004 41.9682C46.1622 43.1181 46.3671 44.2226 46.4923 45.2813ZM50.8755 37.6876C49.8964 38.1088 48.8262 38.4845 47.7219 38.8375C47.073 36.606 46.2191 34.2835 45.1603 31.904C46.2077 29.536 47.0502 27.2247 47.6877 25.0048C48.8149 25.3577 49.885 25.7447 50.8869 26.1659C54.9171 27.8851 57.5244 30.1393 57.5244 31.9268C57.513 33.7142 54.9059 35.9798 50.8755 37.6876Z" fill="#9CA3AF"/>
<path id="Vector_2" d="M32.113 37.1293C34.9865 37.1293 37.316 34.8 37.316 31.9265C37.316 29.053 34.9865 26.7235 32.113 26.7235C29.2395 26.7235 26.9102 29.053 26.9102 31.9265C26.9102 34.8 29.2395 37.1293 32.113 37.1293Z" fill="#9CA3AF"/>
</g>
</svg>
