<svg width="72" height="73" viewBox="0 0 72 73" fill="none" xmlns="http://www.w3.org/2000/svg">
<g id="rotate-cw">
<path id="Vector" d="M63 36.5747C63 41.9148 61.4165 47.135 58.4497 51.5751C55.4829 56.0152 51.2661 59.4759 46.3325 61.5195C41.3989 63.563 35.9701 64.0977 30.7326 63.0559C25.4951 62.0141 20.6841 59.4426 16.9081 55.6666C13.1321 51.8906 10.5606 47.0796 9.51881 41.8421C8.47701 36.6047 9.0117 31.1759 11.0553 26.2423C13.0988 21.3086 16.5595 17.0918 20.9996 14.125C25.4397 11.1582 30.6599 9.57471 36 9.57471C43.56 9.57471 50.79 12.5747 56.22 17.7947L63 24.5747" stroke="#4B5563" stroke-width="3" stroke-linecap="round" stroke-linejoin="round"/>
<path id="Vector_2" d="M63 9.57471V24.5747H48" stroke="#4B5563" stroke-width="3" stroke-linecap="round" stroke-linejoin="round"/>
</g>
</svg>
