<svg width="65" height="64" viewBox="0 0 64 64" fill="none" xmlns="http://www.w3.org/2000/svg">
<g id="tailwind">
<path id="Vector" fill-rule="evenodd" clip-rule="evenodd" d="M32.1979 12.0985C23.6638 12.0985 18.3314 16.3398 16.197 24.8225C19.3974 20.5812 23.1308 18.991 27.3972 20.0507C29.8314 20.6552 31.5721 22.4109 33.4971 24.3547C36.6349 27.5201 40.2667 31.1833 48.1976 31.1833C56.7304 31.1833 62.0641 26.9419 64.1973 18.4605C60.9981 22.7018 57.2647 24.292 52.9982 23.2311C50.5628 22.6266 48.8221 20.8709 46.8971 18.9283C43.7593 15.7605 40.1288 12.0985 32.1979 12.0985ZM16.197 31.1833C7.66412 31.1833 2.33047 35.4246 0.197266 43.9073C3.3977 39.6659 7.13113 38.0757 11.3963 39.1354C13.8317 39.7399 15.5724 41.4956 17.4974 43.4395C20.6352 46.6048 24.2658 50.268 32.1979 50.268C40.7307 50.268 46.0644 46.0279 48.1976 37.5453C44.9971 41.7866 41.2637 43.3768 36.9973 42.3171C34.5631 41.7113 32.8224 39.9556 30.8974 38.013C27.7597 34.8477 24.1278 31.1833 16.197 31.1833Z" fill="#9CA3AF"/>
</g>
</svg>
